<svg width="278" height="57" viewBox="0 0 278 57" fill="none" xmlns="http://www.w3.org/2000/svg">
<g filter="url(#filter0_i_1602_109)">
<path d="M14.1034 56.2619L14.1034 42.1966L32.4503 42.1966C37.8399 42.1966 42.2093 37.8233 42.2093 32.4289L42.2093 14.0654L56.2619 14.0654L56.2619 42.1966L42.2093 56.2619L14.1034 56.2619Z" fill="#0A0A0A"/>
</g>
<g filter="url(#filter1_i_1602_109)">
<path d="M0 42.1964L1.67263e-07 14.0653L14.0526 0L42.1585 1.68048e-07V14.0653H23.8116C18.422 14.0653 14.0526 18.4386 14.0526 23.833V42.1964H0Z" fill="#0A0A0A"/>
</g>
<path d="M82.5095 41.1636C80.224 41.1636 78.2184 40.6338 76.4929 39.5743C74.7674 38.5147 73.4203 37.0465 72.4515 35.1696C71.498 33.2928 71.0212 31.1283 71.0212 28.6762C71.0212 26.1939 71.498 24.0143 72.4515 22.1374C73.4203 20.2454 74.7674 18.7696 76.4929 17.7101C78.2184 16.6354 80.224 16.0981 82.5095 16.0981C84.7951 16.0981 86.793 16.6354 88.5034 17.7101C90.2289 18.7696 91.5685 20.2454 92.5221 22.1374C93.4908 24.0143 93.9751 26.1939 93.9751 28.6762C93.9751 31.1283 93.4908 33.2928 92.5221 35.1696C91.5685 37.0465 90.2289 38.5147 88.5034 39.5743C86.793 40.6338 84.7951 41.1636 82.5095 41.1636ZM82.5095 37.0314C84.568 37.0314 86.1876 36.2746 87.3682 34.761C88.5488 33.2474 89.1391 31.2191 89.1391 28.6762C89.1391 26.1031 88.5413 24.0521 87.3455 22.5234C86.1649 20.9946 84.5529 20.2303 82.5095 20.2303C80.4661 20.2303 78.8466 20.9946 77.6508 22.5234C76.4702 24.037 75.8799 26.088 75.8799 28.6762C75.8799 31.2342 76.4702 33.2701 77.6508 34.7837C78.8314 36.2821 80.451 37.0314 82.5095 37.0314ZM102.081 26.8145V40.6187H97.2909V16.643H101.991V20.253C103.625 17.5285 106.04 16.1662 109.233 16.1662C110.883 16.1662 112.359 16.5295 113.661 17.256C114.977 17.9674 116.014 19.0269 116.771 20.4346C117.528 21.8423 117.906 23.5905 117.906 25.6793V40.6187H113.116V26.2696C113.116 24.3473 112.654 22.9018 111.731 21.9331C110.807 20.9492 109.521 20.4573 107.871 20.4573C106.236 20.4573 104.859 20.9644 103.739 21.9785C102.634 22.9775 102.081 24.5895 102.081 26.8145ZM120.223 40.6187L129.055 28.4038L120.768 16.643H126.24L129.1 20.9114C129.554 21.6228 130.001 22.3191 130.44 23.0002C130.894 23.6813 131.333 24.37 131.757 25.0663C132.211 24.37 132.657 23.6813 133.096 23.0002C133.535 22.3191 133.997 21.6228 134.481 20.9114L137.387 16.643H142.768L134.459 28.3357L143.177 40.6187H137.705L134.368 35.76C133.914 35.0637 133.467 34.3826 133.028 33.7166C132.589 33.0506 132.158 32.3846 131.734 31.7186C131.295 32.3846 130.849 33.0506 130.395 33.7166C129.956 34.3826 129.509 35.0637 129.055 35.76L125.649 40.6187H120.223ZM161.115 40.6187C158.724 40.6187 157.013 40.1797 155.984 39.3018C154.955 38.4088 154.44 36.9254 154.44 34.8518V6.78938H159.231V34.375C159.231 35.2983 159.39 35.9189 159.707 36.2367C160.025 36.5395 160.638 36.6908 161.547 36.6908H162.5V40.6187H161.115ZM164.862 40.6187V16.643H169.653V40.6187H164.862ZM164.749 11.7389V6.78938H169.766V11.7389H164.749ZM186.319 41.0954C184.76 41.0954 183.329 40.7549 182.028 40.0738C180.741 39.3926 179.697 38.3558 178.894 36.9633H178.849V40.6187H174.149V6.78938H178.94V20.1167H178.985C179.757 18.7848 180.786 17.7934 182.073 17.1425C183.36 16.4916 184.782 16.1662 186.341 16.1662C188.4 16.1662 190.209 16.696 191.768 17.7555C193.327 18.7999 194.538 20.2605 195.4 22.1374C196.278 23.9992 196.717 26.1636 196.717 28.6308C196.717 31.098 196.286 33.2701 195.423 35.1469C194.56 37.0087 193.349 38.4693 191.79 39.5289C190.231 40.5732 188.407 41.0954 186.319 41.0954ZM185.342 36.9633C187.28 36.9633 188.846 36.2519 190.042 34.8291C191.253 33.4063 191.858 31.3402 191.858 28.6308C191.858 25.9215 191.253 23.8554 190.042 22.4326C188.846 20.9946 187.28 20.2757 185.342 20.2757C183.299 20.2757 181.664 21.0401 180.438 22.5688C179.227 24.0824 178.622 26.1031 178.622 28.6308C178.622 31.1434 179.227 33.1641 180.438 34.6929C181.664 36.2065 183.299 36.9633 185.342 36.9633ZM200.01 40.6187V16.643H204.596V20.5254H204.687C205.126 19.2086 205.815 18.1869 206.753 17.4604C207.707 16.7187 208.948 16.3478 210.477 16.3478C210.84 16.3478 211.173 16.363 211.476 16.3933C211.779 16.4235 212.028 16.4462 212.225 16.4614V20.9341C212.043 20.8887 211.718 20.8433 211.249 20.7979C210.78 20.7373 210.265 20.7071 209.705 20.7071C208.358 20.7071 207.2 21.1763 206.231 22.1147C205.278 23.0532 204.801 24.4987 204.801 26.4512V40.6187H200.01ZM223.737 41.0954C221.648 41.0954 219.824 40.5732 218.265 39.5289C216.706 38.4693 215.495 37.0087 214.633 35.1469C213.77 33.2701 213.338 31.098 213.338 28.6308C213.338 26.1636 213.77 23.9992 214.633 22.1374C215.51 20.2605 216.729 18.7999 218.288 17.7555C219.847 16.696 221.656 16.1662 223.714 16.1662C225.273 16.1662 226.711 16.4916 228.028 17.1425C229.345 17.7934 230.382 18.7772 231.139 20.094H231.207V16.643H235.929V40.6187H231.207V37.0087H231.139C230.336 38.3709 229.292 39.3926 228.005 40.0738C226.719 40.7549 225.296 41.0954 223.737 41.0954ZM224.713 36.9633C226.757 36.9633 228.384 36.2065 229.595 34.6929C230.821 33.1641 231.434 31.1434 231.434 28.6308C231.434 26.1031 230.821 24.0824 229.595 22.5688C228.384 21.0401 226.757 20.2757 224.713 20.2757C222.776 20.2757 221.202 20.9946 219.991 22.4326C218.795 23.8554 218.197 25.9215 218.197 28.6308C218.197 31.3402 218.795 33.4063 219.991 34.8291C221.202 36.2519 222.776 36.9633 224.713 36.9633ZM240.425 40.6187V16.643H245.012V20.5254H245.103C245.541 19.2086 246.23 18.1869 247.169 17.4604C248.122 16.7187 249.363 16.3478 250.892 16.3478C251.255 16.3478 251.588 16.363 251.891 16.3933C252.194 16.4235 252.444 16.4462 252.64 16.4614V20.9341C252.459 20.8887 252.133 20.8433 251.664 20.7979C251.195 20.7373 250.68 20.7071 250.12 20.7071C248.773 20.7071 247.615 21.1763 246.646 22.1147C245.693 23.0532 245.216 24.4987 245.216 26.4512V40.6187H240.425ZM256.115 50.109V46.0677H258.703C259.46 46.0677 260.073 45.8482 260.542 45.4092C261.027 44.9854 261.45 44.2816 261.814 43.2977L262.904 40.4597L253.64 16.643H258.771L263.562 29.7887C263.88 30.6818 264.19 31.5824 264.493 32.4905C264.796 33.3836 265.091 34.2766 265.378 35.1696C265.666 34.2766 265.961 33.3836 266.264 32.4905C266.582 31.5824 266.899 30.6818 267.217 29.7887L271.94 16.643H277.003L266.105 44.8189C264.758 48.3457 262.442 50.109 259.157 50.109H256.115Z" fill="#262626"/>
<path d="M145.789 40.6187V36.7362H149.671V40.6187H145.789Z" fill="#262626" fill-opacity="0.4"/>
<defs>
<filter id="filter0_i_1602_109" x="14.1034" y="14.0654" width="42.2037" height="42.3318" filterUnits="userSpaceOnUse" color-interpolation-filters="sRGB">
<feFlood flood-opacity="0" result="BackgroundImageFix"/>
<feBlend mode="normal" in="SourceGraphic" in2="BackgroundImageFix" result="shape"/>
<feColorMatrix in="SourceAlpha" type="matrix" values="0 0 0 0 0 0 0 0 0 0 0 0 0 0 0 0 0 0 127 0" result="hardAlpha"/>
<feOffset dx="0.0451775" dy="0.135533"/>
<feGaussianBlur stdDeviation="0.271065"/>
<feComposite in2="hardAlpha" operator="arithmetic" k2="-1" k3="1"/>
<feColorMatrix type="matrix" values="0 0 0 0 0 0 0 0 0 0 0 0 0 0 0 0 0 0 0.02 0"/>
<feBlend mode="normal" in2="shape" result="effect1_innerShadow_1602_109"/>
</filter>
<filter id="filter1_i_1602_109" x="0" y="0" width="42.294" height="42.1963" filterUnits="userSpaceOnUse" color-interpolation-filters="sRGB">
<feFlood flood-opacity="0" result="BackgroundImageFix"/>
<feBlend mode="normal" in="SourceGraphic" in2="BackgroundImageFix" result="shape"/>
<feColorMatrix in="SourceAlpha" type="matrix" values="0 0 0 0 0 0 0 0 0 0 0 0 0 0 0 0 0 0 127 0" result="hardAlpha"/>
<feOffset dx="0.135533"/>
<feGaussianBlur stdDeviation="0.271065"/>
<feComposite in2="hardAlpha" operator="arithmetic" k2="-1" k3="1"/>
<feColorMatrix type="matrix" values="0 0 0 0 0 0 0 0 0 0 0 0 0 0 0 0 0 0 0.02 0"/>
<feBlend mode="normal" in2="shape" result="effect1_innerShadow_1602_109"/>
</filter>
</defs>
</svg>
